<svg width="56" height="42" viewBox="0 0 56 42" fill="none" xmlns="http://www.w3.org/2000/svg">
<path d="M12.728 16.7495C12.1054 16.7495 11.508 16.8449 10.9134 16.9319C11.106 16.281 11.3042 15.6188 11.6224 15.024C11.9407 14.1599 12.4376 13.4108 12.9317 12.6561C13.3449 11.8397 14.0735 11.287 14.6096 10.5884C15.1707 9.90942 15.9356 9.45771 16.5414 8.89379C17.136 8.30461 17.9149 8.01002 18.5347 7.59479C19.1823 7.22164 19.7463 6.80922 20.3493 6.61282L21.854 5.98998L23.1772 5.43727L21.8233 0L20.1566 0.404007C19.6234 0.538676 18.973 0.69579 18.2332 0.883766C17.4766 1.02405 16.6698 1.40842 15.7709 1.75912C14.8831 2.15751 13.8558 2.42685 12.901 3.06653C11.9407 3.67816 10.8324 4.18878 9.8553 5.00802C8.90892 5.8525 7.76712 6.58477 6.92403 7.65932C6.00277 8.66373 5.09268 9.71864 4.38638 10.9194C3.56842 12.0641 3.01287 13.321 2.42661 14.5639C1.89619 15.8068 1.46906 17.0778 1.1201 18.3122C0.458472 20.7868 0.162552 23.1379 0.0480932 25.1495C-0.0468243 27.1639 0.00900949 28.8389 0.12626 30.0509C0.168136 30.6232 0.246303 31.1788 0.302137 31.5631L0.371929 32.0345L0.444513 32.0176C0.941046 34.3486 2.08408 36.4907 3.7414 38.1961C5.39871 39.9015 7.50258 41.1005 9.80963 41.6544C12.1167 42.2083 14.5326 42.0945 16.778 41.3262C19.0234 40.5578 21.0064 39.1663 22.4978 37.3126C23.9891 35.4589 24.9278 33.2188 25.2052 30.8513C25.4826 28.4839 25.0874 26.0859 24.0654 23.9347C23.0433 21.7836 21.4362 19.9672 19.4298 18.6956C17.4235 17.4241 15.0999 16.7493 12.728 16.7495ZM43.4365 16.7495C42.814 16.7495 42.2166 16.8449 41.6219 16.9319C41.8146 16.281 42.0128 15.6188 42.331 15.024C42.6493 14.1599 43.1462 13.4108 43.6403 12.6561C44.0535 11.8397 44.7821 11.287 45.3181 10.5884C45.8793 9.90942 46.6442 9.45771 47.25 8.89379C47.8446 8.30461 48.6235 8.01002 49.2433 7.59479C49.8909 7.22164 50.4549 6.80922 51.0579 6.61282L52.5626 5.98998L53.8858 5.43727L52.5319 0L50.8652 0.404007C50.332 0.538676 49.6816 0.69579 48.9418 0.883766C48.1852 1.02405 47.3784 1.40842 46.4795 1.75912C45.5945 2.16032 44.5644 2.42685 43.6096 3.06934C42.6493 3.68096 41.541 4.19158 40.5639 5.01082C39.6175 5.85531 38.4757 6.58757 37.6326 7.65932C36.7114 8.66373 35.8013 9.71864 35.095 10.9194C34.277 12.0641 33.7215 13.321 33.1352 14.5639C32.6048 15.8068 32.1777 17.0778 31.8287 18.3122C31.1671 20.7868 30.8711 23.1379 30.7567 25.1495C30.6618 27.1639 30.7176 28.8389 30.8349 30.0509C30.8767 30.6232 30.9549 31.1788 31.0107 31.5631L31.0805 32.0345L31.1531 32.0176C31.6496 34.3486 32.7927 36.4907 34.45 38.1961C36.1073 39.9015 38.2112 41.1005 40.5182 41.6544C42.8253 42.2083 45.2412 42.0945 47.4866 41.3262C49.732 40.5578 51.715 39.1663 53.2064 37.3126C54.6977 35.4589 55.6364 33.2188 55.9138 30.8513C56.1912 28.4839 55.796 26.0859 54.774 23.9347C53.7519 21.7836 52.1448 19.9672 50.1384 18.6956C48.1321 17.4241 45.8085 16.7493 43.4365 16.7495Z" fill="white"/>
</svg>
